<svg class="nc-icon outline" xmlns="http://www.w3.org/2000/svg" xmlns:xlink="http://www.w3.org/1999/xlink" x="0px" y="0px" width="48px" height="48px" viewBox="0 0 48 48"><g transform="translate(0, 0)">
<polygon data-color="color-2" fill="none" stroke="#4691f6" stroke-width="2" stroke-linecap="round" stroke-miterlimit="10" points="
	28,24 20,24 12,24 12,32 12,40 20,40 28,40 28,32 36,32 36,24 " stroke-linejoin="round"></polygon>
<line data-color="color-2" fill="none" stroke="#4691f6" stroke-width="2" stroke-linecap="round" stroke-miterlimit="10" x1="20" y1="24" x2="20" y2="40" stroke-linejoin="round"></line>
<polyline data-color="color-2" fill="none" stroke="#4691f6" stroke-width="2" stroke-linecap="round" stroke-miterlimit="10" points="
	28,24 28,32 12,32 " stroke-linejoin="round"></polyline>
<polyline fill="none" stroke="#4691f6" stroke-width="2" stroke-linecap="round" stroke-miterlimit="10" points="38,6 46,6 46,46 
	2,46 2,6 10,6 " stroke-linejoin="round"></polyline>
<line fill="none" stroke="#4691f6" stroke-width="2" stroke-linecap="round" stroke-miterlimit="10" x1="16" y1="6" x2="32" y2="6" stroke-linejoin="round"></line>
<line fill="none" stroke="#4691f6" stroke-width="2" stroke-linecap="round" stroke-miterlimit="10" x1="2" y1="18" x2="46" y2="18" stroke-linejoin="round"></line>
<rect data-color="color-2" x="10" y="2" fill="none" stroke="#4691f6" stroke-width="2" stroke-linecap="round" stroke-miterlimit="10" width="6" height="10" stroke-linejoin="round"></rect>
<rect data-color="color-2" x="32" y="2" fill="none" stroke="#4691f6" stroke-width="2" stroke-linecap="round" stroke-miterlimit="10" width="6" height="10" stroke-linejoin="round"></rect>
</g></svg>