<svg class="nc-icon outline" xmlns="http://www.w3.org/2000/svg" xmlns:xlink="http://www.w3.org/1999/xlink" x="0px" y="0px" width="32px" height="32px" viewBox="0 0 32 32"><g transform="translate(0, 0)">
<path data-cap="butt" data-color="color-2" fill="none" stroke="#4691f6" stroke-width="2" stroke-miterlimit="10" d="M20,22.1c-0.1,2.2-1.8,3.9-4,3.9
	c-2.2,0-3.9-1.7-4-3.8" stroke-linejoin="miter" stroke-linecap="butt"></path>
<path data-cap="butt" fill="none" stroke="#4691f6" stroke-width="2" stroke-miterlimit="10" d="M31,25.9c0-2.5-1.6-5.4-5-6.9v-7
	c0-5.5-4.5-10-10-10h0C10.5,2,6,6.5,6,12v7c-3.3,1.5-5,4.4-5,6.9" stroke-linejoin="miter" stroke-linecap="butt"></path>
<path data-color="color-2" fill="none" stroke="#4691f6" stroke-width="2" stroke-linecap="square" stroke-miterlimit="10" d="M31,26
	c0,2.1-6.7,4-15,4S1,28.1,1,26s6.7-4,15-4S31,23.9,31,26z" stroke-linejoin="miter"></path>
</g></svg>