<?xml version="1.0" encoding="UTF-8" standalone="no"?>
<svg
   xmlns:dc="http://purl.org/dc/elements/1.1/"
   xmlns:cc="http://creativecommons.org/ns#"
   xmlns:rdf="http://www.w3.org/1999/02/22-rdf-syntax-ns#"
   xmlns:svg="http://www.w3.org/2000/svg"
   xmlns="http://www.w3.org/2000/svg"
   xmlns:sodipodi="http://sodipodi.sourceforge.net/DTD/sodipodi-0.dtd"
   xmlns:inkscape="http://www.inkscape.org/namespaces/inkscape"
   class="nc-icon outline"
   x="0px"
   y="0px"
   width="32px"
   height="32px"
   viewBox="0 0 32 32"
   id="svg2"
   version="1.1"
   inkscape:version="0.91 r13725"
   sodipodi:docname="input.svg">
  <metadata
     id="metadata22">
    <rdf:RDF>
      <cc:Work
         rdf:about="">
        <dc:format>image/svg+xml</dc:format>
        <dc:type
           rdf:resource="http://purl.org/dc/dcmitype/StillImage" />
        <dc:title></dc:title>
      </cc:Work>
    </rdf:RDF>
  </metadata>
  <defs
     id="defs20" />
  <sodipodi:namedview
     pagecolor="#ffffff"
     bordercolor="#666666"
     borderopacity="1"
     objecttolerance="10000"
     gridtolerance="10000"
     guidetolerance="10000"
     inkscape:pageopacity="0"
     inkscape:pageshadow="2"
     inkscape:window-width="1391"
     inkscape:window-height="876"
     id="namedview18"
     showgrid="true"
     inkscape:snap-global="true"
     inkscape:zoom="1e+01"
     inkscape:cx="2e+01"
     inkscape:cy="1e+01"
     inkscape:window-x="1489"
     inkscape:window-y="24"
     inkscape:window-maximized="1"
     inkscape:current-layer="svg2"
     inkscape:snap-bbox="true"
     inkscape:bbox-nodes="true"
     inkscape:bbox-paths="true"
     inkscape:snap-grids="true">
    <inkscape:grid
       type="xygrid"
       id="grid4332" />
  </sodipodi:namedview>
  <path class="svg-nav-icon-path" d="m 2,1 a 1,1 0 0 0 -1,1 l 0,6 a 1,1 0 0 0 1,1 l 6,0 a 1,1 0 0 0 1,-1 l 0,-6 a 1,1 0 0 0 -1,-1 l -6,0 z"></path>
              <path class="svg-nav-icon-path" d="m 13,1 a 1,1 0 0 0 -1,1 l 0,6 a 1,1 0 0 0 1,1 l 6,0 a 1,1 0 0 0 1,-1 l 0,-6 A 1,1 0 0 0 19,1 l -6,0 z"></path>
              <path class="svg-nav-icon-path" d="m 13,12 a 1,1 0 0 0 -1,1 l 0,6 a 1,1 0 0 0 1,1 l 6,0 a 1,1 0 0 0 1,-1 l 0,-6 A 1,1 0 0 0 19,12 l -6,0 z"></path>
              <path class="svg-nav-icon-path" d="m 24,1 a 1,1 0 0 0 -1,1 l 0,6 a 1,1 0 0 0 1,1 l 6,0 a 1,1 0 0 0 1,-1 l 0,-6 A 1,1 0 0 0 30,1 l -6,0 z"></path>
              <path class="svg-nav-icon-path" d="m 2,23 a 1,1 0 0 0 -1,1 l 0,6 a 1,1 0 0 0 1,1 l 6,0 A 1,1 0 0 0 9,30 l 0,-6 A 1,1 0 0 0 8,23 l -6,0 z "></path>
              <path class="svg-nav-icon-path" d="m 2,12 a 1,1 0 0 0 -1,1 l 0,6 a 1,1 0 0 0 1,1 l 6,0 a 1,1 0 0 0 1,-1 l 0,-6 a 1,1 0 0 0 -1,-1 l -6,0 z"></path>
              <path class="svg-nav-icon-path-slow" d="m 16,23 0,8"></path>
              <path class="svg-nav-icon-path-slow" d="m 12,27 8,0"></path>
	            <path class="svg-nav-icon-path-slow" d="m 27,23 0,8"></path>			
              <path class="svg-nav-icon-path-slow" d="m 23,27 8,0"></path>	
              <path class="svg-nav-icon-path-slow" d="m 27,12 0,8"></path>
              <path class="svg-nav-icon-path-slow" d="m 23,16 8,0"></path>
</svg>
